<mxfile host="app.diagrams.net" modified="2023-08-25T08:15:20.019Z" agent="Mozilla/5.0 (Macintosh; Intel Mac OS X 10_15_7) AppleWebKit/537.36 (KHTML, like Gecko) Chrome/115.0.0.0 Safari/537.36 Edg/115.0.1901.203" etag="UVfXFgJhlYltS9XoFENo" version="21.6.9" type="device">
  <diagram name="第 1 页" id="oALBMESEw7JyMi4aggSn">
    <mxGraphModel dx="2074" dy="1188" grid="1" gridSize="10" guides="1" tooltips="1" connect="1" arrows="1" fold="1" page="1" pageScale="1" pageWidth="827" pageHeight="1169" math="0" shadow="0">
      <root>
        <mxCell id="0" />
        <mxCell id="1" parent="0" />
        <mxCell id="Z49FHR9zqCtcoF9iOMIW-1" value="" style="rounded=0;whiteSpace=wrap;html=1;" parent="1" vertex="1">
          <mxGeometry x="51" y="289" width="160" height="190" as="geometry" />
        </mxCell>
        <mxCell id="Z49FHR9zqCtcoF9iOMIW-2" value="NextOperator" style="ellipse;whiteSpace=wrap;html=1;" parent="1" vertex="1">
          <mxGeometry x="81" y="321" width="100" height="50" as="geometry" />
        </mxCell>
        <mxCell id="Z49FHR9zqCtcoF9iOMIW-3" style="edgeStyle=orthogonalEdgeStyle;rounded=0;orthogonalLoop=1;jettySize=auto;html=1;exitX=0.5;exitY=0;exitDx=0;exitDy=0;entryX=0.5;entryY=1;entryDx=0;entryDy=0;" parent="1" source="Z49FHR9zqCtcoF9iOMIW-4" target="Z49FHR9zqCtcoF9iOMIW-2" edge="1">
          <mxGeometry relative="1" as="geometry" />
        </mxCell>
        <mxCell id="Z49FHR9zqCtcoF9iOMIW-4" value="ExchangeSource" style="ellipse;whiteSpace=wrap;html=1;fillColor=#dae8fc;strokeColor=#6c8ebf;" parent="1" vertex="1">
          <mxGeometry x="81" y="405" width="100" height="50" as="geometry" />
        </mxCell>
        <mxCell id="Z49FHR9zqCtcoF9iOMIW-5" value="FragmentInstance-0" style="text;html=1;strokeColor=none;fillColor=none;align=center;verticalAlign=middle;whiteSpace=wrap;rounded=0;" parent="1" vertex="1">
          <mxGeometry x="48" y="283" width="120" height="30" as="geometry" />
        </mxCell>
        <mxCell id="Z49FHR9zqCtcoF9iOMIW-6" value="" style="rounded=0;whiteSpace=wrap;html=1;" parent="1" vertex="1">
          <mxGeometry x="339" y="290" width="160" height="190" as="geometry" />
        </mxCell>
        <mxCell id="Z49FHR9zqCtcoF9iOMIW-7" value="NextOperator" style="ellipse;whiteSpace=wrap;html=1;" parent="1" vertex="1">
          <mxGeometry x="369" y="322" width="100" height="50" as="geometry" />
        </mxCell>
        <mxCell id="Z49FHR9zqCtcoF9iOMIW-8" style="edgeStyle=orthogonalEdgeStyle;rounded=0;orthogonalLoop=1;jettySize=auto;html=1;exitX=0.5;exitY=0;exitDx=0;exitDy=0;entryX=0.5;entryY=1;entryDx=0;entryDy=0;" parent="1" source="Z49FHR9zqCtcoF9iOMIW-9" target="Z49FHR9zqCtcoF9iOMIW-7" edge="1">
          <mxGeometry relative="1" as="geometry" />
        </mxCell>
        <mxCell id="Z49FHR9zqCtcoF9iOMIW-9" value="ExchangeSource" style="ellipse;whiteSpace=wrap;html=1;fillColor=#dae8fc;strokeColor=#6c8ebf;" parent="1" vertex="1">
          <mxGeometry x="369" y="409" width="100" height="50" as="geometry" />
        </mxCell>
        <mxCell id="Z49FHR9zqCtcoF9iOMIW-10" value="FragmentInstance-1" style="text;html=1;strokeColor=none;fillColor=none;align=center;verticalAlign=middle;whiteSpace=wrap;rounded=0;" parent="1" vertex="1">
          <mxGeometry x="336" y="284" width="120" height="30" as="geometry" />
        </mxCell>
        <mxCell id="Z49FHR9zqCtcoF9iOMIW-11" value="" style="rounded=0;whiteSpace=wrap;html=1;" parent="1" vertex="1">
          <mxGeometry x="606" y="290" width="160" height="190" as="geometry" />
        </mxCell>
        <mxCell id="Z49FHR9zqCtcoF9iOMIW-12" value="NextOperator" style="ellipse;whiteSpace=wrap;html=1;" parent="1" vertex="1">
          <mxGeometry x="636" y="322" width="100" height="50" as="geometry" />
        </mxCell>
        <mxCell id="Z49FHR9zqCtcoF9iOMIW-13" style="edgeStyle=orthogonalEdgeStyle;rounded=0;orthogonalLoop=1;jettySize=auto;html=1;exitX=0.5;exitY=0;exitDx=0;exitDy=0;entryX=0.5;entryY=1;entryDx=0;entryDy=0;" parent="1" source="Z49FHR9zqCtcoF9iOMIW-14" target="Z49FHR9zqCtcoF9iOMIW-12" edge="1">
          <mxGeometry relative="1" as="geometry" />
        </mxCell>
        <mxCell id="Z49FHR9zqCtcoF9iOMIW-14" value="ExchangeSource" style="ellipse;whiteSpace=wrap;html=1;fillColor=#dae8fc;strokeColor=#6c8ebf;" parent="1" vertex="1">
          <mxGeometry x="636" y="406" width="100" height="50" as="geometry" />
        </mxCell>
        <mxCell id="Z49FHR9zqCtcoF9iOMIW-15" value="FragmentInstance-2" style="text;html=1;strokeColor=none;fillColor=none;align=center;verticalAlign=middle;whiteSpace=wrap;rounded=0;" parent="1" vertex="1">
          <mxGeometry x="603" y="284" width="120" height="30" as="geometry" />
        </mxCell>
        <mxCell id="Z49FHR9zqCtcoF9iOMIW-16" value="" style="rounded=0;whiteSpace=wrap;html=1;" parent="1" vertex="1">
          <mxGeometry x="25" y="680" width="210" height="280" as="geometry" />
        </mxCell>
        <mxCell id="Z49FHR9zqCtcoF9iOMIW-23" value="FragmentInstance-0" style="text;html=1;strokeColor=none;fillColor=none;align=center;verticalAlign=middle;whiteSpace=wrap;rounded=0;" parent="1" vertex="1">
          <mxGeometry x="20" y="937" width="120" height="30" as="geometry" />
        </mxCell>
        <mxCell id="Z49FHR9zqCtcoF9iOMIW-62" style="edgeStyle=orthogonalEdgeStyle;rounded=0;orthogonalLoop=1;jettySize=auto;html=1;exitX=0.5;exitY=0;exitDx=0;exitDy=0;dashed=1;fillColor=#f8cecc;strokeColor=#b85450;" parent="1" source="Z49FHR9zqCtcoF9iOMIW-29" target="Z49FHR9zqCtcoF9iOMIW-4" edge="1">
          <mxGeometry relative="1" as="geometry" />
        </mxCell>
        <mxCell id="Z49FHR9zqCtcoF9iOMIW-29" value="" style="rounded=1;whiteSpace=wrap;html=1;strokeColor=#33FF33;" parent="1" vertex="1">
          <mxGeometry x="41" y="705" width="180" height="180" as="geometry" />
        </mxCell>
        <mxCell id="Z49FHR9zqCtcoF9iOMIW-65" style="edgeStyle=orthogonalEdgeStyle;rounded=0;orthogonalLoop=1;jettySize=auto;html=1;exitX=0.552;exitY=0.002;exitDx=0;exitDy=0;entryX=0.5;entryY=1;entryDx=0;entryDy=0;dashed=1;exitPerimeter=0;fillColor=#f8cecc;strokeColor=#b85450;" parent="1" source="Z49FHR9zqCtcoF9iOMIW-29" edge="1">
          <mxGeometry relative="1" as="geometry">
            <mxPoint x="130.9999999999999" y="702.5" as="sourcePoint" />
            <mxPoint x="421" y="459" as="targetPoint" />
            <Array as="points">
              <mxPoint x="140" y="703" />
              <mxPoint x="140" y="490" />
              <mxPoint x="421" y="490" />
            </Array>
          </mxGeometry>
        </mxCell>
        <mxCell id="Z49FHR9zqCtcoF9iOMIW-30" value="ExchangeSink" style="text;html=1;strokeColor=none;fillColor=none;align=center;verticalAlign=middle;whiteSpace=wrap;rounded=0;" parent="1" vertex="1">
          <mxGeometry x="19" y="680" width="110" height="30" as="geometry" />
        </mxCell>
        <mxCell id="Z49FHR9zqCtcoF9iOMIW-35" style="edgeStyle=orthogonalEdgeStyle;rounded=0;orthogonalLoop=1;jettySize=auto;html=1;exitX=0.5;exitY=0;exitDx=0;exitDy=0;entryX=0.496;entryY=-0.003;entryDx=0;entryDy=0;entryPerimeter=0;" parent="1" source="Z49FHR9zqCtcoF9iOMIW-31" target="Z49FHR9zqCtcoF9iOMIW-29" edge="1">
          <mxGeometry relative="1" as="geometry" />
        </mxCell>
        <mxCell id="Z49FHR9zqCtcoF9iOMIW-31" value="warp chunks&amp;nbsp;&lt;br style=&quot;border-color: var(--border-color);&quot;&gt;to Package" style="ellipse;whiteSpace=wrap;html=1;fillColor=#d5e8d4;strokeColor=#82b366;" parent="1" vertex="1">
          <mxGeometry x="65" y="730" width="130" height="50" as="geometry" />
        </mxCell>
        <mxCell id="Z49FHR9zqCtcoF9iOMIW-33" style="edgeStyle=orthogonalEdgeStyle;rounded=0;orthogonalLoop=1;jettySize=auto;html=1;exitX=0.5;exitY=0;exitDx=0;exitDy=0;entryX=0.5;entryY=1;entryDx=0;entryDy=0;" parent="1" source="Z49FHR9zqCtcoF9iOMIW-32" target="Z49FHR9zqCtcoF9iOMIW-31" edge="1">
          <mxGeometry relative="1" as="geometry" />
        </mxCell>
        <mxCell id="Z49FHR9zqCtcoF9iOMIW-32" value="reorganize chunks&lt;br style=&quot;border-color: var(--border-color);&quot;&gt;by&amp;nbsp; partition columns" style="ellipse;whiteSpace=wrap;html=1;fillColor=#d5e8d4;strokeColor=#82b366;" parent="1" vertex="1">
          <mxGeometry x="65" y="810" width="130" height="50" as="geometry" />
        </mxCell>
        <mxCell id="Z49FHR9zqCtcoF9iOMIW-41" style="edgeStyle=orthogonalEdgeStyle;rounded=0;orthogonalLoop=1;jettySize=auto;html=1;exitX=0.5;exitY=0;exitDx=0;exitDy=0;entryX=0.5;entryY=1;entryDx=0;entryDy=0;" parent="1" source="Z49FHR9zqCtcoF9iOMIW-40" target="Z49FHR9zqCtcoF9iOMIW-32" edge="1">
          <mxGeometry relative="1" as="geometry" />
        </mxCell>
        <mxCell id="Z49FHR9zqCtcoF9iOMIW-40" value="PrevOperator" style="ellipse;whiteSpace=wrap;html=1;" parent="1" vertex="1">
          <mxGeometry x="80" y="899" width="100" height="45" as="geometry" />
        </mxCell>
        <mxCell id="Z49FHR9zqCtcoF9iOMIW-42" value="" style="rounded=0;whiteSpace=wrap;html=1;" parent="1" vertex="1">
          <mxGeometry x="314" y="680" width="210" height="280" as="geometry" />
        </mxCell>
        <mxCell id="Z49FHR9zqCtcoF9iOMIW-43" value="FragmentInstance-1" style="text;html=1;strokeColor=none;fillColor=none;align=center;verticalAlign=middle;whiteSpace=wrap;rounded=0;" parent="1" vertex="1">
          <mxGeometry x="309" y="938" width="120" height="30" as="geometry" />
        </mxCell>
        <mxCell id="Z49FHR9zqCtcoF9iOMIW-68" style="edgeStyle=orthogonalEdgeStyle;rounded=0;orthogonalLoop=1;jettySize=auto;html=1;exitX=0.5;exitY=0;exitDx=0;exitDy=0;entryX=0.597;entryY=0.986;entryDx=0;entryDy=0;entryPerimeter=0;dashed=1;fillColor=#0050ef;strokeColor=#001DBC;" parent="1" source="Z49FHR9zqCtcoF9iOMIW-44" target="Z49FHR9zqCtcoF9iOMIW-4" edge="1">
          <mxGeometry relative="1" as="geometry">
            <Array as="points">
              <mxPoint x="420" y="530" />
              <mxPoint x="140" y="530" />
              <mxPoint x="140" y="454" />
            </Array>
          </mxGeometry>
        </mxCell>
        <mxCell id="Z49FHR9zqCtcoF9iOMIW-69" style="edgeStyle=orthogonalEdgeStyle;rounded=0;orthogonalLoop=1;jettySize=auto;html=1;exitX=0.598;exitY=-0.006;exitDx=0;exitDy=0;entryX=0.58;entryY=0.996;entryDx=0;entryDy=0;entryPerimeter=0;exitPerimeter=0;dashed=1;fillColor=#0050ef;strokeColor=#001DBC;" parent="1" edge="1">
          <mxGeometry relative="1" as="geometry">
            <mxPoint x="437.64" y="703.92" as="sourcePoint" />
            <mxPoint x="694" y="455.79999999999995" as="targetPoint" />
            <Array as="points">
              <mxPoint x="438" y="705" />
              <mxPoint x="438" y="530" />
              <mxPoint x="681" y="530" />
            </Array>
          </mxGeometry>
        </mxCell>
        <mxCell id="Z49FHR9zqCtcoF9iOMIW-44" value="" style="rounded=1;whiteSpace=wrap;html=1;strokeColor=#33FF33;" parent="1" vertex="1">
          <mxGeometry x="330" y="705" width="180" height="180" as="geometry" />
        </mxCell>
        <mxCell id="Z49FHR9zqCtcoF9iOMIW-67" style="edgeStyle=orthogonalEdgeStyle;rounded=0;orthogonalLoop=1;jettySize=auto;html=1;exitX=0.555;exitY=-0.001;exitDx=0;exitDy=0;entryX=0.617;entryY=0.998;entryDx=0;entryDy=0;entryPerimeter=0;exitPerimeter=0;dashed=1;fillColor=#0050ef;strokeColor=#001DBC;" parent="1" source="Z49FHR9zqCtcoF9iOMIW-44" target="Z49FHR9zqCtcoF9iOMIW-9" edge="1">
          <mxGeometry relative="1" as="geometry">
            <Array as="points">
              <mxPoint x="430" y="569" />
              <mxPoint x="431" y="569" />
            </Array>
          </mxGeometry>
        </mxCell>
        <mxCell id="Z49FHR9zqCtcoF9iOMIW-45" value="ExchangeSink" style="text;html=1;strokeColor=none;fillColor=none;align=center;verticalAlign=middle;whiteSpace=wrap;rounded=0;" parent="1" vertex="1">
          <mxGeometry x="308" y="680" width="110" height="30" as="geometry" />
        </mxCell>
        <mxCell id="Z49FHR9zqCtcoF9iOMIW-46" style="edgeStyle=orthogonalEdgeStyle;rounded=0;orthogonalLoop=1;jettySize=auto;html=1;exitX=0.5;exitY=0;exitDx=0;exitDy=0;entryX=0.496;entryY=-0.003;entryDx=0;entryDy=0;entryPerimeter=0;" parent="1" source="Z49FHR9zqCtcoF9iOMIW-47" target="Z49FHR9zqCtcoF9iOMIW-44" edge="1">
          <mxGeometry relative="1" as="geometry" />
        </mxCell>
        <mxCell id="Z49FHR9zqCtcoF9iOMIW-47" value="warp chunks&amp;nbsp;&lt;br style=&quot;border-color: var(--border-color);&quot;&gt;to Package" style="ellipse;whiteSpace=wrap;html=1;fillColor=#d5e8d4;strokeColor=#82b366;" parent="1" vertex="1">
          <mxGeometry x="354" y="730" width="130" height="50" as="geometry" />
        </mxCell>
        <mxCell id="Z49FHR9zqCtcoF9iOMIW-48" style="edgeStyle=orthogonalEdgeStyle;rounded=0;orthogonalLoop=1;jettySize=auto;html=1;exitX=0.5;exitY=0;exitDx=0;exitDy=0;entryX=0.5;entryY=1;entryDx=0;entryDy=0;" parent="1" source="Z49FHR9zqCtcoF9iOMIW-49" target="Z49FHR9zqCtcoF9iOMIW-47" edge="1">
          <mxGeometry relative="1" as="geometry" />
        </mxCell>
        <mxCell id="Z49FHR9zqCtcoF9iOMIW-49" value="reorganize chunks&lt;br style=&quot;border-color: var(--border-color);&quot;&gt;by&amp;nbsp; partition columns" style="ellipse;whiteSpace=wrap;html=1;fillColor=#d5e8d4;strokeColor=#82b366;" parent="1" vertex="1">
          <mxGeometry x="354" y="810" width="130" height="50" as="geometry" />
        </mxCell>
        <mxCell id="Z49FHR9zqCtcoF9iOMIW-50" style="edgeStyle=orthogonalEdgeStyle;rounded=0;orthogonalLoop=1;jettySize=auto;html=1;exitX=0.5;exitY=0;exitDx=0;exitDy=0;entryX=0.5;entryY=1;entryDx=0;entryDy=0;" parent="1" source="Z49FHR9zqCtcoF9iOMIW-51" target="Z49FHR9zqCtcoF9iOMIW-49" edge="1">
          <mxGeometry relative="1" as="geometry" />
        </mxCell>
        <mxCell id="Z49FHR9zqCtcoF9iOMIW-51" value="PrevOperator" style="ellipse;whiteSpace=wrap;html=1;" parent="1" vertex="1">
          <mxGeometry x="369" y="899" width="100" height="45" as="geometry" />
        </mxCell>
        <mxCell id="Z49FHR9zqCtcoF9iOMIW-52" value="" style="rounded=0;whiteSpace=wrap;html=1;" parent="1" vertex="1">
          <mxGeometry x="599" y="676.5" width="210" height="280" as="geometry" />
        </mxCell>
        <mxCell id="Z49FHR9zqCtcoF9iOMIW-53" value="FragmentInstance-2" style="text;html=1;strokeColor=none;fillColor=none;align=center;verticalAlign=middle;whiteSpace=wrap;rounded=0;" parent="1" vertex="1">
          <mxGeometry x="594" y="933.5" width="120" height="30" as="geometry" />
        </mxCell>
        <mxCell id="Z49FHR9zqCtcoF9iOMIW-72" style="edgeStyle=orthogonalEdgeStyle;rounded=0;orthogonalLoop=1;jettySize=auto;html=1;exitX=0.513;exitY=0.004;exitDx=0;exitDy=0;entryX=0.691;entryY=0.955;entryDx=0;entryDy=0;entryPerimeter=0;exitPerimeter=0;dashed=1;" parent="1" source="Z49FHR9zqCtcoF9iOMIW-54" edge="1">
          <mxGeometry relative="1" as="geometry">
            <mxPoint x="707" y="701.5" as="sourcePoint" />
            <mxPoint x="707.0999999999999" y="453.75" as="targetPoint" />
          </mxGeometry>
        </mxCell>
        <mxCell id="Z49FHR9zqCtcoF9iOMIW-54" value="" style="rounded=1;whiteSpace=wrap;html=1;strokeColor=#33FF33;" parent="1" vertex="1">
          <mxGeometry x="615" y="701.5" width="180" height="180" as="geometry" />
        </mxCell>
        <mxCell id="Z49FHR9zqCtcoF9iOMIW-70" style="edgeStyle=orthogonalEdgeStyle;rounded=0;orthogonalLoop=1;jettySize=auto;html=1;entryX=0.684;entryY=0.948;entryDx=0;entryDy=0;entryPerimeter=0;dashed=1;" parent="1" target="Z49FHR9zqCtcoF9iOMIW-4" edge="1">
          <mxGeometry relative="1" as="geometry">
            <mxPoint x="690" y="700" as="sourcePoint" />
            <Array as="points">
              <mxPoint x="690" y="570" />
              <mxPoint x="149" y="570" />
            </Array>
          </mxGeometry>
        </mxCell>
        <mxCell id="Z49FHR9zqCtcoF9iOMIW-71" style="edgeStyle=orthogonalEdgeStyle;rounded=0;orthogonalLoop=1;jettySize=auto;html=1;entryX=0.716;entryY=0.952;entryDx=0;entryDy=0;entryPerimeter=0;dashed=1;" parent="1" target="Z49FHR9zqCtcoF9iOMIW-9" edge="1">
          <mxGeometry relative="1" as="geometry">
            <mxPoint x="700" y="700" as="sourcePoint" />
            <mxPoint x="440" y="460" as="targetPoint" />
            <Array as="points">
              <mxPoint x="700" y="560" />
              <mxPoint x="441" y="560" />
            </Array>
          </mxGeometry>
        </mxCell>
        <mxCell id="Z49FHR9zqCtcoF9iOMIW-55" value="ExchangeSink" style="text;html=1;strokeColor=none;fillColor=none;align=center;verticalAlign=middle;whiteSpace=wrap;rounded=0;" parent="1" vertex="1">
          <mxGeometry x="593" y="676.5" width="110" height="30" as="geometry" />
        </mxCell>
        <mxCell id="Z49FHR9zqCtcoF9iOMIW-56" style="edgeStyle=orthogonalEdgeStyle;rounded=0;orthogonalLoop=1;jettySize=auto;html=1;exitX=0.5;exitY=0;exitDx=0;exitDy=0;entryX=0.496;entryY=-0.003;entryDx=0;entryDy=0;entryPerimeter=0;" parent="1" source="Z49FHR9zqCtcoF9iOMIW-57" target="Z49FHR9zqCtcoF9iOMIW-54" edge="1">
          <mxGeometry relative="1" as="geometry" />
        </mxCell>
        <mxCell id="Z49FHR9zqCtcoF9iOMIW-57" value="warp chunks&amp;nbsp;&lt;br style=&quot;border-color: var(--border-color);&quot;&gt;to Package" style="ellipse;whiteSpace=wrap;html=1;fillColor=#d5e8d4;strokeColor=#82b366;" parent="1" vertex="1">
          <mxGeometry x="639" y="726.5" width="130" height="50" as="geometry" />
        </mxCell>
        <mxCell id="Z49FHR9zqCtcoF9iOMIW-58" style="edgeStyle=orthogonalEdgeStyle;rounded=0;orthogonalLoop=1;jettySize=auto;html=1;exitX=0.5;exitY=0;exitDx=0;exitDy=0;entryX=0.5;entryY=1;entryDx=0;entryDy=0;" parent="1" source="Z49FHR9zqCtcoF9iOMIW-59" target="Z49FHR9zqCtcoF9iOMIW-57" edge="1">
          <mxGeometry relative="1" as="geometry" />
        </mxCell>
        <mxCell id="Z49FHR9zqCtcoF9iOMIW-59" value="reorganize chunks&lt;br style=&quot;border-color: var(--border-color);&quot;&gt;by&amp;nbsp; partition columns" style="ellipse;whiteSpace=wrap;html=1;fillColor=#d5e8d4;strokeColor=#82b366;" parent="1" vertex="1">
          <mxGeometry x="639" y="806.5" width="130" height="50" as="geometry" />
        </mxCell>
        <mxCell id="Z49FHR9zqCtcoF9iOMIW-60" style="edgeStyle=orthogonalEdgeStyle;rounded=0;orthogonalLoop=1;jettySize=auto;html=1;exitX=0.5;exitY=0;exitDx=0;exitDy=0;entryX=0.5;entryY=1;entryDx=0;entryDy=0;" parent="1" source="Z49FHR9zqCtcoF9iOMIW-61" target="Z49FHR9zqCtcoF9iOMIW-59" edge="1">
          <mxGeometry relative="1" as="geometry" />
        </mxCell>
        <mxCell id="Z49FHR9zqCtcoF9iOMIW-61" value="PrevOperator" style="ellipse;whiteSpace=wrap;html=1;" parent="1" vertex="1">
          <mxGeometry x="654" y="895.5" width="100" height="45" as="geometry" />
        </mxCell>
        <mxCell id="Z49FHR9zqCtcoF9iOMIW-66" style="edgeStyle=orthogonalEdgeStyle;rounded=0;orthogonalLoop=1;jettySize=auto;html=1;dashed=1;exitX=0.5;exitY=0;exitDx=0;exitDy=0;fillColor=#f8cecc;strokeColor=#b85450;" parent="1" source="Z49FHR9zqCtcoF9iOMIW-29" target="Z49FHR9zqCtcoF9iOMIW-14" edge="1">
          <mxGeometry relative="1" as="geometry">
            <mxPoint x="150" y="700" as="sourcePoint" />
            <mxPoint x="673" y="460" as="targetPoint" />
            <Array as="points">
              <mxPoint x="150" y="705" />
              <mxPoint x="150" y="500" />
              <mxPoint x="680" y="500" />
            </Array>
          </mxGeometry>
        </mxCell>
      </root>
    </mxGraphModel>
  </diagram>
</mxfile>
